<svg width="34" height="34" viewBox="0 0 34 34" fill="none" xmlns="http://www.w3.org/2000/svg">
<path fill-rule="evenodd" clip-rule="evenodd" d="M10.6861 27.6443C11.2605 27.6443 11.7274 28.1111 11.7274 28.6855C11.7274 29.2599 11.2605 29.7254 10.6861 29.7254C10.1117 29.7254 9.64624 29.2599 9.64624 28.6855C9.64624 28.1111 10.1117 27.6443 10.6861 27.6443Z" stroke="#067FCC" stroke-width="2.04167" stroke-linecap="round" stroke-linejoin="round"/>
<path fill-rule="evenodd" clip-rule="evenodd" d="M26.0019 27.6443C26.5763 27.6443 27.0432 28.1111 27.0432 28.6855C27.0432 29.2599 26.5763 29.7254 26.0019 29.7254C25.4276 29.7254 24.9607 29.2599 24.9607 28.6855C24.9607 28.1111 25.4276 27.6443 26.0019 27.6443Z" stroke="#067FCC" stroke-width="2.04167" stroke-linecap="round" stroke-linejoin="round"/>
<path d="M4.32642 5.09027L7.15753 5.58027L8.46828 21.1963C8.57444 22.4689 9.63747 23.4462 10.9142 23.4462H25.7666C26.9862 23.4462 28.0206 22.5506 28.1962 21.3419L29.4879 12.4158C29.6472 11.3146 28.7937 10.3292 27.6817 10.3292H7.61214" stroke="#067FCC" stroke-width="2.04167" stroke-linecap="round" stroke-linejoin="round"/>
<path d="M19.8098 15.3599H23.5842" stroke="#067FCC" stroke-width="2.04167" stroke-linecap="round" stroke-linejoin="round"/>
</svg>
