<svg width="21" height="21" viewBox="0 0 21 21" fill="none" xmlns="http://www.w3.org/2000/svg">
<path fill-rule="evenodd" clip-rule="evenodd" d="M2.89422 5.2028C2.89422 3.92778 3.92832 2.89367 5.20232 2.89367H6.25276C6.86117 2.89367 7.44611 2.65275 7.87894 2.22298L8.61292 1.48798C9.51228 0.584547 10.9741 0.580463 11.8775 1.47982L11.8867 1.48798L12.6217 2.22298C13.0535 2.65275 13.6385 2.89367 14.2479 2.89367H15.2973C16.5724 2.89367 17.6065 3.92778 17.6065 5.2028V6.25119C17.6065 6.86165 17.8474 7.44557 18.2772 7.8784L19.0122 8.6134C19.9156 9.51276 19.9207 10.9736 19.0213 11.878L19.0122 11.8872L18.2772 12.6222C17.8474 13.053 17.6065 13.639 17.6065 14.2474V15.2978C17.6065 16.5728 16.5724 17.6059 15.2973 17.6059H14.2479C13.6385 17.6059 13.0535 17.8479 12.6217 18.2776L11.8867 19.0116C10.9884 19.9161 9.52657 19.9202 8.62211 19.0208C8.61905 19.0177 8.61599 19.0147 8.61292 19.0116L7.87894 18.2776C7.44611 17.8479 6.86117 17.6059 6.25276 17.6059H5.20232C3.92832 17.6059 2.89422 16.5728 2.89422 15.2978V14.2474C2.89422 13.639 2.65228 13.053 2.22251 12.6222L1.48853 11.8872C0.584069 10.9879 0.579986 9.52603 1.47934 8.62259L1.48853 8.6134L2.22251 7.8784C2.65228 7.44557 2.89422 6.86165 2.89422 6.25119V5.2028Z" stroke="white" stroke-width="1.36111" stroke-linecap="round" stroke-linejoin="round"/>
<path d="M7.62646 12.873L12.8735 7.62595" stroke="white" stroke-width="1.36111" stroke-linecap="round" stroke-linejoin="round"/>
<path d="M12.8702 13.6416C12.6661 13.6416 12.4721 13.5599 12.3292 13.417C12.2577 13.3456 12.2067 13.2537 12.1659 13.1618C12.125 13.0699 12.1046 12.9791 12.1046 12.876C12.1046 12.7739 12.125 12.6718 12.1659 12.5799C12.2067 12.4881 12.2577 12.4064 12.3292 12.3349C12.615 12.0491 13.1254 12.0491 13.4113 12.3349C13.4827 12.4064 13.544 12.4881 13.5848 12.5799C13.6154 12.6718 13.6359 12.7739 13.6359 12.876C13.6359 12.9791 13.6154 13.0699 13.5848 13.1618C13.544 13.2537 13.4827 13.3456 13.4113 13.417C13.2684 13.5599 13.0744 13.6416 12.8702 13.6416Z" fill="white"/>
<path d="M7.62299 8.39495C7.5209 8.39495 7.42903 8.37351 7.33715 8.33268C7.24528 8.29184 7.1534 8.24182 7.08194 8.17036C7.01049 8.0887 6.95944 8.00703 6.91861 7.91515C6.87778 7.82226 6.85736 7.7314 6.85736 7.62932C6.85736 7.52622 6.87778 7.42515 6.91861 7.33328C6.95944 7.2414 7.01049 7.14953 7.08194 7.08828C7.37799 6.80142 7.87819 6.80142 8.16403 7.08828C8.30694 7.23017 8.38861 7.42515 8.38861 7.62932C8.38861 7.7314 8.3784 7.82226 8.33757 7.91515C8.29674 8.00703 8.23549 8.0887 8.16403 8.17036C8.09257 8.24182 8.0109 8.29184 7.91903 8.33268C7.82715 8.37351 7.72507 8.39495 7.62299 8.39495Z" fill="white"/>
</svg>
