<svg width="25" height="25" viewBox="0 0 25 25" fill="none" xmlns="http://www.w3.org/2000/svg">
<g clip-path="url(#clip0_1048_1944)">
<path d="M8.4445 19.3958C8.98598 19.3958 9.50529 19.1807 9.88817 18.7978C10.2711 18.415 10.4862 17.8957 10.4862 17.3542C10.4862 16.8127 10.2711 16.2934 9.88817 15.9105C9.50529 15.5276 8.98598 15.3125 8.4445 15.3125C7.90302 15.3125 7.38371 15.5276 7.00082 15.9105C6.61794 16.2934 6.40283 16.8127 6.40283 17.3542C6.40283 17.8957 6.61794 18.415 7.00082 18.7978C7.38371 19.1807 7.90302 19.3958 8.4445 19.3958V19.3958ZM18.6528 19.3958C19.1943 19.3958 19.7136 19.1807 20.0965 18.7978C20.4794 18.415 20.6945 17.8957 20.6945 17.3542C20.6945 16.8127 20.4794 16.2934 20.0965 15.9105C19.7136 15.5276 19.1943 15.3125 18.6528 15.3125C18.1113 15.3125 17.592 15.5276 17.2092 15.9105C16.8263 16.2934 16.6112 16.8127 16.6112 17.3542C16.6112 17.8957 16.8263 18.415 17.2092 18.7978C17.592 19.1807 18.1113 19.3958 18.6528 19.3958V19.3958Z" stroke="white" stroke-width="1.36111" stroke-miterlimit="1.5" stroke-linecap="round" stroke-linejoin="round"/>
<path d="M10.5371 17.3542H15.5903V6.7375C15.5903 6.57505 15.5257 6.41926 15.4109 6.3044C15.296 6.18953 15.1402 6.125 14.9778 6.125H1.29858M6.04546 17.3542H3.95275C3.87232 17.3542 3.79267 17.3383 3.71836 17.3075C3.64405 17.2768 3.57652 17.2316 3.51965 17.1748C3.46277 17.1179 3.41766 17.0504 3.38687 16.9761C3.35609 16.9017 3.34025 16.8221 3.34025 16.7417V11.7396" stroke="white" stroke-width="1.36111" stroke-linecap="round"/>
<path d="M2.31934 9.1875H6.40267" stroke="white" stroke-width="1.36111" stroke-linecap="round" stroke-linejoin="round"/>
<path d="M15.5903 9.1875H21.3172C21.4356 9.18753 21.5514 9.22187 21.6507 9.28637C21.75 9.35087 21.8285 9.44275 21.8766 9.55092L23.7039 13.6628C23.7387 13.7409 23.7568 13.8254 23.757 13.9109V16.7417C23.757 16.8221 23.7412 16.9017 23.7104 16.9761C23.6796 17.0504 23.6345 17.1179 23.5776 17.1748C23.5207 17.2316 23.4532 17.2768 23.3789 17.3075C23.3046 17.3383 23.2249 17.3542 23.1445 17.3542H21.2049M15.5903 17.3542H16.6112" stroke="white" stroke-width="1.36111" stroke-linecap="round"/>
</g>
<defs>
<clipPath id="clip0_1048_1944">
<rect width="24.5" height="24.5" fill="white" transform="translate(0.277832)"/>
</clipPath>
</defs>
</svg>
