<svg width="18" height="21" viewBox="0 0 18 21" fill="none" xmlns="http://www.w3.org/2000/svg">
<path fill-rule="evenodd" clip-rule="evenodd" d="M0.938538 8.60778C0.953245 4.27885 4.47446 0.781481 8.80339 0.796143C13.1323 0.810897 16.6297 4.33211 16.615 8.66104V8.74981C16.5617 11.5638 14.9905 14.1647 13.0643 16.1975C11.9626 17.3414 10.7324 18.3542 9.39814 19.2156C9.04136 19.5242 8.51216 19.5242 8.15539 19.2156C6.16629 17.9209 4.42053 16.2863 2.99796 14.3866C1.73004 12.73 1.01016 10.7193 0.938538 8.63441V8.60778Z" stroke="white" stroke-width="1.36111" stroke-linecap="round" stroke-linejoin="round"/>
<path d="M8.77679 11.2708C10.1642 11.2708 11.2889 10.1461 11.2889 8.75867C11.2889 7.37126 10.1642 6.24654 8.77679 6.24654C7.38937 6.24654 6.26465 7.37126 6.26465 8.75867C6.26465 10.1461 7.38937 11.2708 8.77679 11.2708Z" stroke="white" stroke-width="1.36111" stroke-linecap="round" stroke-linejoin="round"/>
</svg>
