<svg width="31" height="30" viewBox="0 0 31 30" fill="none" xmlns="http://www.w3.org/2000/svg">
<path fill-rule="evenodd" clip-rule="evenodd" d="M3.11611 27.6756C5.29306 29.8495 8.79161 29.8495 15.7917 29.8495C22.7918 29.8495 26.2918 29.8495 28.4658 27.6741C30.6412 25.5016 30.6412 22.0001 30.6412 15C30.6412 7.99992 30.6412 4.49988 28.4658 2.32443C26.2933 0.150452 22.7918 0.150452 15.7917 0.150452C8.79161 0.150452 5.29157 0.150452 3.11611 2.32443C0.942139 4.50137 0.942139 7.99992 0.942139 15C0.942139 22.0001 0.942139 25.5016 3.11611 27.6756ZM25.8151 20.9398C25.8151 21.2352 25.6978 21.5185 25.4889 21.7273C25.2801 21.9362 24.9968 22.0535 24.7014 22.0535H6.88196C6.58658 22.0535 6.3033 21.9362 6.09444 21.7273C5.88558 21.5185 5.76824 21.2352 5.76824 20.9398C5.76824 20.6444 5.88558 20.3612 6.09444 20.1523C6.3033 19.9434 6.58658 19.8261 6.88196 19.8261H24.7014C24.9968 19.8261 25.2801 19.9434 25.4889 20.1523C25.6978 20.3612 25.8151 20.6444 25.8151 20.9398ZM24.7014 16.1137C24.9968 16.1137 25.2801 15.9964 25.4889 15.7875C25.6978 15.5787 25.8151 15.2954 25.8151 15C25.8151 14.7046 25.6978 14.4213 25.4889 14.2125C25.2801 14.0036 24.9968 13.8863 24.7014 13.8863H6.88196C6.58658 13.8863 6.3033 14.0036 6.09444 14.2125C5.88558 14.4213 5.76824 14.7046 5.76824 15C5.76824 15.2954 5.88558 15.5787 6.09444 15.7875C6.3033 15.9964 6.58658 16.1137 6.88196 16.1137H24.7014ZM25.8151 9.06018C25.8151 9.35556 25.6978 9.63883 25.4889 9.8477C25.2801 10.0566 24.9968 10.1739 24.7014 10.1739H6.88196C6.58658 10.1739 6.3033 10.0566 6.09444 9.8477C5.88558 9.63883 5.76824 9.35556 5.76824 9.06018C5.76824 8.7648 5.88558 8.48153 6.09444 8.27266C6.3033 8.0638 6.58658 7.94646 6.88196 7.94646H24.7014C24.9968 7.94646 25.2801 8.0638 25.4889 8.27266C25.6978 8.48153 25.8151 8.7648 25.8151 9.06018Z" fill="#008BE1"/>
</svg>
